<svg width="283" height="157" viewBox="0 0 283 157" fill="none" xmlns="http://www.w3.org/2000/svg">
<g clip-path="url(#clip0_304_336)">
<rect width="282" height="156" transform="translate(0.5 0.5)" fill="white"/>
<path d="M141.103 11.58L102.686 40.2603C101.925 40.8288 101.926 41.97 102.688 42.5373L135.542 66.9901C138.618 69.2791 142.843 69.2321 145.867 66.8752L177.128 42.508C177.853 41.9432 177.859 40.8495 177.14 40.2772L141.103 11.58Z" fill="url(#paint0_linear_304_336)" fill-opacity="0.2"/>
<path d="M103.324 41.1138L141.082 12.9247L176.477 41.1103C176.656 41.2534 176.655 41.5268 176.474 41.668L145.212 66.0352C142.566 68.0975 138.869 68.1386 136.178 66.1357L103.324 41.683C103.133 41.5412 103.133 41.2558 103.324 41.1138L102.686 40.2603L103.324 41.1138Z" stroke="url(#paint1_linear_304_336)" stroke-opacity="0.5" stroke-width="2.13"/>
<path opacity="0.8" d="M152.468 16.6428L152.468 1.28504H110.745V76.4432H168.255L168.255 17.7078H153.533H152.468V16.6428Z" fill="url(#paint2_linear_304_336)" fill-opacity="0.6" stroke="url(#paint3_linear_304_336)" stroke-width="2.13"/>
<rect x="116.375" y="9.34851" width="29.2113" height="1.21714" fill="#3D1EFE"/>
<rect x="149.44" y="9.45001" width="2.13" height="1.42" fill="#3D1EFE"/>
<rect x="116.375" y="15.4342" width="18.8656" height="1.21714" fill="#3D1EFE"/>
<rect x="116.375" y="27.6056" width="18.8656" height="1.21714" fill="#3D1EFE"/>
<rect x="116.375" y="21.5199" width="24.3427" height="1.21714" fill="#3D1EFE"/>
<rect x="138.892" y="15.4342" width="12.7799" height="1.21714" fill="#3D1EFE"/>
<rect x="138.892" y="27.6056" width="12.7799" height="1.21714" fill="#3D1EFE"/>
<rect x="144.977" y="21.5199" width="16.4314" height="1.21714" fill="#3D1EFE"/>
<path opacity="0.8" d="M166.819 17.615L152.635 2.86415V17.615H166.819Z" fill="url(#paint4_linear_304_336)" fill-opacity="0.3" stroke="url(#paint5_linear_304_336)" stroke-width="2.13"/>
<path d="M102.225 95.0051V42.8021C102.225 41.9262 103.224 41.4248 103.926 41.948L136.8 66.4299C139.244 68.2502 142.605 68.2054 145 66.3206L175.761 42.1101C176.46 41.5603 177.485 42.058 177.485 42.947V95.0051H102.225Z" fill="url(#paint6_linear_304_336)" fill-opacity="0.4" stroke="url(#paint7_linear_304_336)" stroke-width="2.13" stroke-linejoin="round"/>
<path d="M140.92 68.025L141.559 67.173L140.944 66.7118L140.313 67.1503L140.92 68.025ZM175.781 95.502L176.633 96.141L177.911 94.437L177.059 93.798L175.781 95.502ZM101.973 93.7753C101.489 94.1108 101.37 94.7744 101.705 95.2575C102.041 95.7406 102.704 95.8603 103.187 95.5248L101.973 93.7753ZM140.281 68.877L175.781 95.502L177.059 93.798L141.559 67.173L140.281 68.877ZM140.313 67.1503L101.973 93.7753L103.187 95.5248L141.527 68.8998L140.313 67.1503Z" fill="#3D1EFE"/>
<circle cx="172.16" cy="81.1599" r="21.655" fill="url(#paint8_linear_304_336)" fill-opacity="0.9" stroke="url(#paint9_linear_304_336)" stroke-width="2.13"/>
<path d="M155.684 86.5V74.82H160.564L164.452 84.132H165.012L164.692 84.42V74.82H167.476V86.5H162.564L158.676 77.188H158.116L158.436 76.9V86.5H155.684ZM170.8 86.5V74.82H173.776V86.5H170.8ZM173.456 81.972V79.54H177.792V81.972H173.456ZM173.456 77.252V74.82H177.968V77.252H173.456ZM183.174 86.5V77.092H186.15V86.5H183.174ZM179.974 77.412V74.82H189.35V77.412H179.974Z" fill="white"/>
<circle opacity="0.2" cx="121.69" cy="114.69" r="3.44619" fill="url(#paint10_linear_304_336)" fill-opacity="0.3" stroke="url(#paint11_linear_304_336)" stroke-width="1.48856"/>
<circle opacity="0.2" cx="194.69" cy="127.69" r="3.44619" fill="url(#paint12_linear_304_336)" fill-opacity="0.3" stroke="url(#paint13_linear_304_336)" stroke-width="1.48856"/>
<path opacity="0.2" d="M75.1367 75.6905C75.1367 77.5937 73.5937 79.1366 71.6905 79.1366C69.7872 79.1366 68.2443 77.5937 68.2443 75.6905C68.2443 73.7872 69.7872 72.2443 71.6905 72.2443C73.5937 72.2443 75.1367 73.7872 75.1367 75.6905Z" fill="url(#paint14_linear_304_336)" fill-opacity="0.3" stroke="url(#paint15_linear_304_336)" stroke-width="1.48856"/>
<circle opacity="0.2" cx="61.6905" cy="119.69" r="3.44619" fill="url(#paint16_linear_304_336)" fill-opacity="0.3" stroke="url(#paint17_linear_304_336)" stroke-width="1.48856"/>
<circle opacity="0.2" cx="217.69" cy="78.6905" r="3.44619" fill="url(#paint18_linear_304_336)" fill-opacity="0.3" stroke="url(#paint19_linear_304_336)" stroke-width="1.48856"/>
<circle opacity="0.2" cx="235.69" cy="59.6905" r="3.44619" fill="url(#paint20_linear_304_336)" fill-opacity="0.3" stroke="url(#paint21_linear_304_336)" stroke-width="1.48856"/>
<circle opacity="0.2" cx="43.6905" cy="47.6905" r="3.44619" fill="url(#paint22_linear_304_336)" fill-opacity="0.3" stroke="url(#paint23_linear_304_336)" stroke-width="1.48856"/>
</g>
<defs>
<linearGradient id="paint0_linear_304_336" x1="157.797" y1="50.3792" x2="89.6571" y2="50.3792" gradientUnits="userSpaceOnUse">
<stop stop-color="#0720FF"/>
<stop offset="1" stop-color="#0038FF" stop-opacity="0"/>
</linearGradient>
<linearGradient id="paint1_linear_304_336" x1="183.751" y1="38.1745" x2="95.406" y2="38.1745" gradientUnits="userSpaceOnUse">
<stop stop-color="#3D1EFE"/>
<stop offset="1" stop-color="#3316E4" stop-opacity="0.2"/>
</linearGradient>
<linearGradient id="paint2_linear_304_336" x1="150.823" y1="38.6945" x2="109.68" y2="38.6945" gradientUnits="userSpaceOnUse">
<stop stop-color="#915BF8"/>
<stop offset="1" stop-color="#270E56" stop-opacity="0"/>
</linearGradient>
<linearGradient id="paint3_linear_304_336" x1="169.281" y1="38.4124" x2="106.737" y2="38.4124" gradientUnits="userSpaceOnUse">
<stop stop-color="#915BF8"/>
<stop offset="1" stop-color="#5A03FF" stop-opacity="0.3"/>
</linearGradient>
<linearGradient id="paint4_linear_304_336" x1="163.815" y1="9.40947" x2="151.57" y2="9.40947" gradientUnits="userSpaceOnUse">
<stop stop-color="#915BF8"/>
<stop offset="1" stop-color="#270E56" stop-opacity="0"/>
</linearGradient>
<linearGradient id="paint5_linear_304_336" x1="169.308" y1="9.34211" x2="150.694" y2="9.34211" gradientUnits="userSpaceOnUse">
<stop stop-color="#915BF8"/>
<stop offset="1" stop-color="#5A03FF" stop-opacity="0.3"/>
</linearGradient>
<linearGradient id="paint6_linear_304_336" x1="157.797" y1="74.273" x2="89.6571" y2="74.273" gradientUnits="userSpaceOnUse">
<stop stop-color="#0720FF"/>
<stop offset="1" stop-color="#0038FF" stop-opacity="0"/>
</linearGradient>
<linearGradient id="paint7_linear_304_336" x1="183.751" y1="63.0392" x2="95.406" y2="63.0392" gradientUnits="userSpaceOnUse">
<stop stop-color="#3D1EFE"/>
<stop offset="1" stop-color="#3316E4" stop-opacity="0.2"/>
</linearGradient>
<linearGradient id="paint8_linear_304_336" x1="182.695" y1="86.6576" x2="142.686" y2="86.6576" gradientUnits="userSpaceOnUse">
<stop stop-color="#0720FF"/>
<stop offset="1" stop-color="#0038FF" stop-opacity="0"/>
</linearGradient>
<linearGradient id="paint9_linear_304_336" x1="197.934" y1="77.7815" x2="146.062" y2="77.7815" gradientUnits="userSpaceOnUse">
<stop stop-color="#3D1EFE"/>
<stop offset="1" stop-color="#3316E4" stop-opacity="0.2"/>
</linearGradient>
<linearGradient id="paint10_linear_304_336" x1="123.282" y1="114.709" x2="117.5" y2="114.709" gradientUnits="userSpaceOnUse">
<stop stop-color="#915BF8"/>
<stop offset="1" stop-color="#270E56" stop-opacity="0"/>
</linearGradient>
<linearGradient id="paint11_linear_304_336" x1="125.875" y1="114.739" x2="117.086" y2="114.739" gradientUnits="userSpaceOnUse">
<stop stop-color="#915BF8"/>
<stop offset="1" stop-color="#5A03FF" stop-opacity="0.3"/>
</linearGradient>
<linearGradient id="paint12_linear_304_336" x1="196.282" y1="127.709" x2="190.5" y2="127.709" gradientUnits="userSpaceOnUse">
<stop stop-color="#915BF8"/>
<stop offset="1" stop-color="#270E56" stop-opacity="0"/>
</linearGradient>
<linearGradient id="paint13_linear_304_336" x1="198.875" y1="127.739" x2="190.086" y2="127.739" gradientUnits="userSpaceOnUse">
<stop stop-color="#915BF8"/>
<stop offset="1" stop-color="#5A03FF" stop-opacity="0.3"/>
</linearGradient>
<linearGradient id="paint14_linear_304_336" x1="50.7816" y1="58.8993" x2="45" y2="58.8993" gradientUnits="userSpaceOnUse">
<stop stop-color="#915BF8"/>
<stop offset="1" stop-color="#270E56" stop-opacity="0"/>
</linearGradient>
<linearGradient id="paint15_linear_304_336" x1="53.3755" y1="58.9299" x2="44.5864" y2="58.9299" gradientUnits="userSpaceOnUse">
<stop stop-color="#915BF8"/>
<stop offset="1" stop-color="#5A03FF" stop-opacity="0.3"/>
</linearGradient>
<linearGradient id="paint16_linear_304_336" x1="63.2815" y1="119.709" x2="57.5" y2="119.709" gradientUnits="userSpaceOnUse">
<stop stop-color="#915BF8"/>
<stop offset="1" stop-color="#270E56" stop-opacity="0"/>
</linearGradient>
<linearGradient id="paint17_linear_304_336" x1="65.8755" y1="119.739" x2="57.0864" y2="119.739" gradientUnits="userSpaceOnUse">
<stop stop-color="#915BF8"/>
<stop offset="1" stop-color="#5A03FF" stop-opacity="0.3"/>
</linearGradient>
<linearGradient id="paint18_linear_304_336" x1="219.282" y1="78.7089" x2="213.5" y2="78.7089" gradientUnits="userSpaceOnUse">
<stop stop-color="#915BF8"/>
<stop offset="1" stop-color="#270E56" stop-opacity="0"/>
</linearGradient>
<linearGradient id="paint19_linear_304_336" x1="221.875" y1="78.7394" x2="213.086" y2="78.7394" gradientUnits="userSpaceOnUse">
<stop stop-color="#915BF8"/>
<stop offset="1" stop-color="#5A03FF" stop-opacity="0.3"/>
</linearGradient>
<linearGradient id="paint20_linear_304_336" x1="237.282" y1="59.7089" x2="231.5" y2="59.7089" gradientUnits="userSpaceOnUse">
<stop stop-color="#915BF8"/>
<stop offset="1" stop-color="#270E56" stop-opacity="0"/>
</linearGradient>
<linearGradient id="paint21_linear_304_336" x1="239.875" y1="59.7394" x2="231.086" y2="59.7394" gradientUnits="userSpaceOnUse">
<stop stop-color="#915BF8"/>
<stop offset="1" stop-color="#5A03FF" stop-opacity="0.3"/>
</linearGradient>
<linearGradient id="paint22_linear_304_336" x1="45.2815" y1="47.7089" x2="39.5" y2="47.7089" gradientUnits="userSpaceOnUse">
<stop stop-color="#915BF8"/>
<stop offset="1" stop-color="#270E56" stop-opacity="0"/>
</linearGradient>
<linearGradient id="paint23_linear_304_336" x1="47.8755" y1="47.7394" x2="39.0864" y2="47.7394" gradientUnits="userSpaceOnUse">
<stop stop-color="#915BF8"/>
<stop offset="1" stop-color="#5A03FF" stop-opacity="0.3"/>
</linearGradient>
<clipPath id="clip0_304_336">
<rect width="282" height="156" fill="white" transform="translate(0.5 0.5)"/>
</clipPath>
</defs>
</svg>
