<svg width="27" height="27" viewBox="0 0 27 27" fill="none" xmlns="http://www.w3.org/2000/svg">
<g id="Life buoy" clip-path="url(#clip0_304_590)">
<g id="Group">
<g id="Group_2">
<g id="Group_3">
<g id="Group_4">
<g id="Group_5">
<path id="Vector" d="M14.3511 1.15409H12.6484V0.916997C12.6484 0.90241 12.6603 0.890503 12.6749 0.890503H14.3246C14.3392 0.890503 14.3511 0.90241 14.3511 0.916997V1.15409Z" fill="url(#paint0_linear_304_590)" fill-opacity="0.4" stroke="url(#paint1_linear_304_590)"/>
</g>
</g>
</g>
<g id="Group_6">
<g id="Group_7">
<g id="Group_8">
<path id="Vector_2" d="M12.6484 26.0835V25.8464H14.3511V26.0835C14.3511 26.0981 14.3392 26.11 14.3246 26.11H12.6749C12.6603 26.11 12.6484 26.0981 12.6484 26.0835Z" fill="url(#paint2_linear_304_590)" fill-opacity="0.4" stroke="url(#paint3_linear_304_590)"/>
</g>
</g>
</g>
</g>
<g id="Group_9">
<g id="Group_10">
<g id="Group_11">
<g id="Group_12">
<path id="Vector_3" d="M1.15372 12.6489V14.3516H0.916631C0.902043 14.3516 0.890137 14.3397 0.890137 14.3251V12.6754C0.890137 12.6608 0.902043 12.6489 0.916631 12.6489H1.15372Z" fill="url(#paint4_linear_304_590)" fill-opacity="0.4" stroke="url(#paint5_linear_304_590)"/>
</g>
</g>
</g>
<g id="Group_13">
<g id="Group_14">
<g id="Group_15">
<path id="Vector_4" d="M26.0833 14.3516H25.8462V12.6489H26.0833C26.0979 12.6489 26.1098 12.6608 26.1098 12.6754V14.3251C26.1098 14.3397 26.0979 14.3516 26.0833 14.3516Z" fill="url(#paint6_linear_304_590)" fill-opacity="0.4" stroke="url(#paint7_linear_304_590)"/>
</g>
</g>
</g>
</g>
<g id="Group_16">
<g id="Group_17">
<g id="Group_18">
<g id="Group_19">
<path id="Vector_5" opacity="0.8" d="M2.12744 13.5002C2.12744 7.21927 7.21918 2.12762 13.5001 2.12762C19.7809 2.12762 24.8727 7.21927 24.8727 13.5002C24.8727 19.7811 19.7809 24.8729 13.5001 24.8729C7.21918 24.8729 2.12744 19.7811 2.12744 13.5002ZM5.50685 13.5002C5.50685 17.9148 9.08552 21.4935 13.5001 21.4935C17.9146 21.4935 21.4933 17.9148 21.4933 13.5002C21.4933 9.0857 17.9146 5.50703 13.5001 5.50703C9.08552 5.50703 5.50685 9.0857 5.50685 13.5002Z" fill="url(#paint8_linear_304_590)" fill-opacity="0.3" stroke="url(#paint9_linear_304_590)" stroke-width="2"/>
</g>
</g>
</g>
<g id="Group_20">
<g id="Group_21">
<g id="Group_22">
<path id="Vector_6" d="M20.0575 8.92977C19.5425 8.19233 18.9064 7.54615 18.178 7.01965L20.557 4.58196C21.3564 5.21557 22.0687 5.95449 22.673 6.77766L20.0575 8.92977Z" fill="url(#paint10_linear_304_590)" fill-opacity="0.7" stroke="url(#paint11_linear_304_590)" stroke-width="2"/>
</g>
</g>
</g>
<g id="Group_23">
<g id="Group_24">
<g id="Group_25">
<path id="Vector_7" d="M8.82219 7.0196C8.09369 7.54609 7.45761 8.1923 6.94269 8.92973L4.32724 6.77766C4.9315 5.95449 5.64376 5.21557 6.44321 4.58196L8.82219 7.0196Z" fill="url(#paint12_linear_304_590)" fill-opacity="0.7" stroke="url(#paint13_linear_304_590)" stroke-width="2"/>
</g>
</g>
</g>
<g id="Group_26">
<g id="Group_27">
<g id="Group_28">
<path id="Vector_8" d="M20.557 22.4185L18.178 19.9809C18.9065 19.4544 19.5426 18.8082 20.0575 18.0707L22.6729 20.2228C22.0687 21.046 21.3564 21.7849 20.557 22.4185Z" fill="url(#paint14_linear_304_590)" fill-opacity="0.7" stroke="url(#paint15_linear_304_590)" stroke-width="2"/>
</g>
</g>
</g>
<g id="Group_29">
<g id="Group_30">
<g id="Group_31">
<path id="Vector_9" d="M4.32726 20.2228L6.94273 18.0707C7.45768 18.8082 8.09377 19.4543 8.82224 19.9808L6.44321 22.4185C5.64378 21.7849 4.93153 21.046 4.32726 20.2228Z" fill="url(#paint16_linear_304_590)" fill-opacity="0.7" stroke="url(#paint17_linear_304_590)" stroke-width="2"/>
</g>
</g>
</g>
</g>
</g>
</g>
<defs>
<linearGradient id="paint0_linear_304_590" x1="14.1264" y1="1.17517" x2="11.7467" y2="1.17517" gradientUnits="userSpaceOnUse">
<stop stop-color="#0720FF"/>
<stop offset="1" stop-color="#0038FF" stop-opacity="0"/>
</linearGradient>
<linearGradient id="paint1_linear_304_590" x1="15.0328" y1="0.928348" x2="11.9475" y2="0.928348" gradientUnits="userSpaceOnUse">
<stop stop-color="#3D1EFE"/>
<stop offset="1" stop-color="#3316E4" stop-opacity="0.2"/>
</linearGradient>
<linearGradient id="paint2_linear_304_590" x1="14.1264" y1="26.131" x2="11.7467" y2="26.131" gradientUnits="userSpaceOnUse">
<stop stop-color="#0720FF"/>
<stop offset="1" stop-color="#0038FF" stop-opacity="0"/>
</linearGradient>
<linearGradient id="paint3_linear_304_590" x1="15.0328" y1="25.8842" x2="11.9475" y2="25.8842" gradientUnits="userSpaceOnUse">
<stop stop-color="#3D1EFE"/>
<stop offset="1" stop-color="#3316E4" stop-opacity="0.2"/>
</linearGradient>
<linearGradient id="paint4_linear_304_590" x1="1.31488" y1="13.8273" x2="0.202323" y2="13.8273" gradientUnits="userSpaceOnUse">
<stop stop-color="#0720FF"/>
<stop offset="1" stop-color="#0038FF" stop-opacity="0"/>
</linearGradient>
<linearGradient id="paint5_linear_304_590" x1="1.73865" y1="13.2993" x2="0.296188" y2="13.2993" gradientUnits="userSpaceOnUse">
<stop stop-color="#3D1EFE"/>
<stop offset="1" stop-color="#3316E4" stop-opacity="0.2"/>
</linearGradient>
<linearGradient id="paint6_linear_304_590" x1="26.2709" y1="13.8273" x2="25.1584" y2="13.8273" gradientUnits="userSpaceOnUse">
<stop stop-color="#0720FF"/>
<stop offset="1" stop-color="#0038FF" stop-opacity="0"/>
</linearGradient>
<linearGradient id="paint7_linear_304_590" x1="26.6947" y1="13.2993" x2="25.2522" y2="13.2993" gradientUnits="userSpaceOnUse">
<stop stop-color="#3D1EFE"/>
<stop offset="1" stop-color="#3316E4" stop-opacity="0.2"/>
</linearGradient>
<linearGradient id="paint8_linear_304_590" x1="18.1978" y1="13.5546" x2="1.12744" y2="13.5546" gradientUnits="userSpaceOnUse">
<stop stop-color="#915BF8"/>
<stop offset="1" stop-color="#270E56" stop-opacity="0"/>
</linearGradient>
<linearGradient id="paint9_linear_304_590" x1="25.8566" y1="13.6449" x2="-0.0937529" y2="13.6449" gradientUnits="userSpaceOnUse">
<stop stop-color="#915BF8"/>
<stop offset="1" stop-color="#5A03FF" stop-opacity="0.3"/>
</linearGradient>
<linearGradient id="paint10_linear_304_590" x1="22.0189" y1="7.72184" x2="15.4784" y2="7.72184" gradientUnits="userSpaceOnUse">
<stop stop-color="#0720FF"/>
<stop offset="1" stop-color="#0038FF" stop-opacity="0"/>
</linearGradient>
<linearGradient id="paint11_linear_304_590" x1="24.5102" y1="6.31891" x2="16.0302" y2="6.31891" gradientUnits="userSpaceOnUse">
<stop stop-color="#3D1EFE"/>
<stop offset="1" stop-color="#3316E4" stop-opacity="0.2"/>
</linearGradient>
<linearGradient id="paint12_linear_304_590" x1="8.42564" y1="7.72184" x2="1.88513" y2="7.72184" gradientUnits="userSpaceOnUse">
<stop stop-color="#0720FF"/>
<stop offset="1" stop-color="#0038FF" stop-opacity="0"/>
</linearGradient>
<linearGradient id="paint13_linear_304_590" x1="10.9169" y1="6.31891" x2="2.43695" y2="6.31891" gradientUnits="userSpaceOnUse">
<stop stop-color="#3D1EFE"/>
<stop offset="1" stop-color="#3316E4" stop-opacity="0.2"/>
</linearGradient>
<linearGradient id="paint14_linear_304_590" x1="22.0189" y1="21.0165" x2="15.4784" y2="21.0165" gradientUnits="userSpaceOnUse">
<stop stop-color="#0720FF"/>
<stop offset="1" stop-color="#0038FF" stop-opacity="0"/>
</linearGradient>
<linearGradient id="paint15_linear_304_590" x1="24.5102" y1="19.6136" x2="16.0302" y2="19.6136" gradientUnits="userSpaceOnUse">
<stop stop-color="#3D1EFE"/>
<stop offset="1" stop-color="#3316E4" stop-opacity="0.2"/>
</linearGradient>
<linearGradient id="paint16_linear_304_590" x1="8.42564" y1="21.0165" x2="1.88513" y2="21.0165" gradientUnits="userSpaceOnUse">
<stop stop-color="#0720FF"/>
<stop offset="1" stop-color="#0038FF" stop-opacity="0"/>
</linearGradient>
<linearGradient id="paint17_linear_304_590" x1="10.9169" y1="19.6136" x2="2.43695" y2="19.6136" gradientUnits="userSpaceOnUse">
<stop stop-color="#3D1EFE"/>
<stop offset="1" stop-color="#3316E4" stop-opacity="0.2"/>
</linearGradient>
<clipPath id="clip0_304_590">
<rect width="26.9565" height="26.9565" fill="white" transform="translate(0.0214844 0.0219727)"/>
</clipPath>
</defs>
</svg>
